<svg width="32" height="31" viewBox="0 0 32 31" fill="none" xmlns="http://www.w3.org/2000/svg">
<path d="M1.18734 23.1718C1.37153 26.6688 4.1511 29.3262 7.80893 29.5023C9.93171 29.6045 12.6441 29.6814 16 29.6814C19.3559 29.6814 22.0683 29.6045 24.1911 29.5023C27.8489 29.3262 30.6284 26.6688 30.8126 23.1718C30.9196 21.1423 31 18.5491 31 15.3407C31 12.1323 30.9196 9.53914 30.8126 7.50966C30.6285 4.0126 27.8489 1.35521 24.1911 1.17911C22.0683 1.07691 19.3559 1 16 1C12.6441 1 9.93171 1.07691 7.80893 1.1791C4.1511 1.3552 1.37154 4.0126 1.18734 7.50966C1.08044 9.53914 1 12.1323 1 15.3407C1 18.5491 1.08044 21.1423 1.18734 23.1718Z" stroke="#007D34" stroke-width="1.5" stroke-linecap="round" stroke-linejoin="round"/>
<path d="M16 22.1695C19.9449 22.1695 23.1429 19.1121 23.1429 15.3406C23.1429 11.5691 19.9449 8.51172 16 8.51172C12.0551 8.51172 8.85715 11.5691 8.85715 15.3406C8.85715 19.1121 12.0551 22.1695 16 22.1695Z" stroke="#007D34" stroke-width="1.5" stroke-linecap="round" stroke-linejoin="round"/>
<path d="M24.5714 6.46313H25.2857" stroke="#007D34" stroke-width="1.5" stroke-linecap="round" stroke-linejoin="round"/>
</svg>
