<svg width="32" height="31" viewBox="0 0 32 31" fill="none" xmlns="http://www.w3.org/2000/svg">
<path d="M6.92435 14.4061C6.78516 14.4534 6.6875 14.5811 6.6875 14.7157C6.6875 14.8504 6.78516 14.9781 6.92435 15.0254L11.2914 16.4689L20.2888 12.2639C20.3834 12.2213 20.5074 12.2505 20.5672 12.3294C20.627 12.4083 20.6124 12.5234 20.5344 12.588L14.0767 17.7406L21.264 22.4484C21.3614 22.5124 21.4929 22.5286 21.6058 22.4906C21.7185 22.4526 21.8064 22.3627 21.8342 22.2565L25.4279 8.57747C25.4588 8.46042 25.4137 8.33137 25.3138 8.25187C25.214 8.17239 25.0667 8.1483 24.9425 8.1911L6.92435 14.4061Z" stroke="#FFFFFF" stroke-width="1.5" stroke-linecap="round" stroke-linejoin="round"/>
<path d="M9.375 17.1333L10.5127 22.2526C10.5481 22.3989 10.7051 22.5111 10.8744 22.5111C11.0438 22.5111 11.2008 22.3989 11.2362 22.2526L12.1875 18.3893" stroke="#FFFFFF" stroke-width="1.5" stroke-linecap="round" stroke-linejoin="round"/>
<path d="M15 19.8223L11.25 22.5111" stroke="#FFFFFF" stroke-width="1.5" stroke-linecap="round" stroke-linejoin="round"/>
<path d="M16 29.6814C24.2843 29.6814 31 23.2609 31 15.3407C31 7.42055 24.2843 1 16 1C7.71573 1 1 7.42055 1 15.3407C1 23.2609 7.71573 29.6814 16 29.6814Z" stroke="#FFFFFF" stroke-width="1.5" stroke-linejoin="round"/>
</svg>
