<svg width="110" height="110" viewBox="0 0 110 110" fill="none" xmlns="http://www.w3.org/2000/svg">
<g clip-path="url(#clip0_1330_3367)">
<path d="M55 0C24.673 0 0 24.673 0 55C0 68.2825 4.73367 80.4797 12.6023 89.9947C12.6225 90.0222 12.6243 90.057 12.6463 90.0827C18.3278 96.9338 25.4632 102.186 33.4143 105.58C33.506 105.618 33.5958 105.66 33.6875 105.699C34.331 105.97 34.9818 106.222 35.6345 106.467C35.8912 106.564 36.1478 106.663 36.4082 106.757C36.971 106.959 37.5375 107.149 38.1077 107.332C38.4725 107.45 38.8373 107.565 39.2058 107.675C39.71 107.826 40.216 107.971 40.7257 108.108C41.173 108.229 41.624 108.341 42.075 108.449C42.5315 108.559 42.9898 108.669 43.45 108.766C43.9633 108.876 44.4822 108.973 45.0028 109.069C45.4208 109.146 45.837 109.226 46.2587 109.294C46.8362 109.388 47.4173 109.461 48.0003 109.536C48.3762 109.584 48.7502 109.639 49.1278 109.679C49.7878 109.749 50.4533 109.798 51.1207 109.844C51.4305 109.866 51.7385 109.899 52.0502 109.916C53.0237 109.971 54.0082 110 55 110C55.9918 110 56.9763 109.971 57.9535 109.919C58.2652 109.903 58.5732 109.87 58.883 109.848C59.5503 109.8 60.2158 109.753 60.8758 109.683C61.2535 109.643 61.6275 109.588 62.0033 109.54C62.5863 109.465 63.1675 109.391 63.745 109.298C64.1648 109.23 64.5828 109.149 65.0008 109.072C65.5197 108.977 66.0385 108.88 66.5537 108.77C67.0138 108.671 67.4703 108.563 67.9287 108.453C68.3797 108.343 68.8307 108.231 69.278 108.112C69.7877 107.976 70.2937 107.829 70.7978 107.679C71.1663 107.569 71.5312 107.454 71.896 107.336C72.4662 107.153 73.0327 106.962 73.5955 106.761C73.854 106.667 74.1107 106.568 74.3692 106.471C75.0237 106.225 75.6727 105.972 76.3162 105.703C76.4078 105.664 76.4977 105.622 76.5893 105.584C84.5387 102.19 91.6758 96.9375 97.3573 90.0863C97.3793 90.0607 97.3812 90.024 97.4013 89.9983C105.266 80.4797 110 68.2825 110 55C110 24.673 85.327 0 55 0ZM77.2878 101.237C77.2603 101.25 77.2347 101.264 77.2072 101.277C76.5527 101.592 75.8872 101.889 75.2162 102.179C75.064 102.243 74.9137 102.309 74.7615 102.373C74.1748 102.619 73.5808 102.852 72.9832 103.076C72.7338 103.169 72.4845 103.261 72.2333 103.349C71.7035 103.538 71.1718 103.719 70.6347 103.891C70.301 103.998 69.9655 104.099 69.63 104.198C69.1533 104.34 68.6748 104.478 68.1908 104.606C67.7838 104.715 67.3732 104.813 66.9625 104.911C66.5317 105.013 66.1027 105.118 65.6682 105.21C65.1933 105.31 64.7148 105.396 64.2382 105.483C63.8513 105.554 63.4663 105.629 63.0758 105.692C62.5387 105.776 61.996 105.844 61.4552 105.912C61.1123 105.956 60.7713 106.007 60.4248 106.044C59.807 106.11 59.1837 106.152 58.5622 106.196C58.2853 106.214 58.0103 106.245 57.7298 106.26C56.8223 106.308 55.913 106.333 55 106.333C54.087 106.333 53.1777 106.308 52.272 106.26C51.9933 106.245 51.7183 106.216 51.4397 106.196C50.8163 106.154 50.1948 106.11 49.577 106.044C49.2305 106.007 48.8895 105.956 48.5467 105.912C48.0058 105.844 47.4632 105.776 46.926 105.692C46.5355 105.629 46.1505 105.554 45.7637 105.483C45.2852 105.396 44.8067 105.309 44.3337 105.21C43.8992 105.118 43.4683 105.013 43.0393 104.911C42.6287 104.812 42.218 104.715 41.811 104.606C41.3288 104.478 40.8485 104.339 40.3718 104.198C40.0363 104.099 39.7008 103.998 39.3672 103.891C38.83 103.719 38.2965 103.538 37.7685 103.349C37.5173 103.259 37.268 103.167 37.0187 103.076C36.421 102.852 35.827 102.619 35.2403 102.373C35.0882 102.311 34.9397 102.245 34.7875 102.181C34.1165 101.893 33.451 101.594 32.7947 101.279C32.7672 101.266 32.7415 101.253 32.714 101.239C26.3175 98.1438 20.6672 93.7512 16.082 88.4162C19.6258 75.3665 29.6578 64.8468 42.5645 60.6613C42.8193 60.8172 43.0852 60.9565 43.3473 61.1032C43.5013 61.1893 43.6535 61.281 43.8093 61.3635C44.3557 61.6532 44.9093 61.9245 45.4758 62.1683C45.9103 62.359 46.3595 62.5203 46.8068 62.6853C46.8948 62.7165 46.9828 62.7513 47.0708 62.7825C49.5568 63.6625 52.217 64.1667 55 64.1667C57.783 64.1667 60.4432 63.6625 62.9273 62.7825C63.0153 62.7513 63.1033 62.7165 63.1913 62.6853C63.6387 62.5203 64.0878 62.359 64.5223 62.1683C65.0888 61.9245 65.6425 61.6532 66.1888 61.3635C66.3447 61.2792 66.4968 61.1893 66.6508 61.1032C66.913 60.9565 67.1807 60.8172 67.4373 60.6595C80.344 64.8468 90.3742 75.3665 93.9198 88.4143C89.3347 93.7475 83.6843 98.1402 77.2878 101.237ZM34.8333 40.3333C34.8333 29.2142 43.8808 20.1667 55 20.1667C66.1192 20.1667 75.1667 29.2142 75.1667 40.3333C75.1667 47.4063 71.4982 53.6305 65.9707 57.2312C65.2483 57.7005 64.4967 58.1203 63.7248 58.487C63.6332 58.531 63.5433 58.5768 63.4517 58.619C58.1423 61.0335 51.8577 61.0335 46.5483 58.619C46.4567 58.5768 46.365 58.531 46.2752 58.487C45.5015 58.1203 44.7517 57.7005 44.0293 57.2312C38.5018 53.6305 34.8333 47.4063 34.8333 40.3333ZM96.6698 84.9255C92.5137 72.6532 83.0317 62.7348 70.917 58.0232C75.7625 53.658 78.8333 47.355 78.8333 40.3333C78.8333 27.192 68.1413 16.5 55 16.5C41.8587 16.5 31.1667 27.192 31.1667 40.3333C31.1667 47.355 34.2375 53.658 39.0848 58.0232C26.9702 62.7367 17.4882 72.6532 13.332 84.9255C7.25817 76.494 3.66667 66.1613 3.66667 55C3.66667 26.6952 26.6952 3.66667 55 3.66667C83.3048 3.66667 106.333 26.6952 106.333 55C106.333 66.1613 102.742 76.494 96.6698 84.9255Z" fill="#505050"/>
</g>
<defs>
<clipPath id="clip0_1330_3367">
<rect width="110" height="110" fill="white"/>
</clipPath>
</defs>
</svg>
