<svg width="32" height="31" viewBox="0 0 32 31" fill="none" xmlns="http://www.w3.org/2000/svg">
<path d="M31 15.3407C31 7.42054 24.2843 1 16 1C7.71571 1 1 7.42054 1 15.3407C1 17.9368 1.72154 20.3718 2.98336 22.4723C2.33413 24.0951 1.72098 25.9804 1.31841 27.8644C1.12641 28.7629 1.9545 29.5231 2.88789 29.3118C4.77544 28.8845 6.69157 28.2921 8.37457 27.6927C10.6089 28.9562 13.2159 29.6814 16 29.6814C24.2843 29.6814 31 23.2609 31 15.3407Z" stroke="#007D34" stroke-width="1.5" stroke-linecap="round" stroke-linejoin="round"/>
<path d="M14.494 12.4152C14.9831 11.9477 15.0106 11.201 14.5804 10.6833C13.8883 9.85055 13.371 9.1368 12.9887 8.5548C12.4652 7.75773 11.1774 7.52811 10.4812 8.19368L9.75335 8.88958C8.47743 10.1094 7.64465 11.7454 8.14964 13.4015C8.62576 14.9631 9.68183 17.0666 11.9965 19.2796C14.3112 21.4925 16.5115 22.5021 18.1449 22.9574C19.8771 23.4402 21.5883 22.644 22.8642 21.4242L23.5921 20.7283C24.2883 20.0627 24.0481 18.8315 23.2143 18.3309C22.6056 17.9655 21.8591 17.471 20.988 16.8093C20.4465 16.398 19.6655 16.4243 19.1765 16.8919L18.4499 17.5866C18.2145 17.8116 17.8957 17.9438 17.5721 17.8688C17.0283 17.7427 16.1015 17.3845 15.0401 16.3698C13.9788 15.3551 13.604 14.469 13.4722 13.9491C13.3937 13.6397 13.532 13.335 13.7674 13.1099L14.494 12.4152Z" stroke="#007D34" stroke-width="1.5" stroke-linecap="round" stroke-linejoin="round"/>
</svg>
