<svg width="100" height="96" viewBox="0 0 100 96" fill="none" xmlns="http://www.w3.org/2000/svg">
<path d="M99.7628 47.5779C99.7628 56.988 96.8441 66.1867 91.3759 74.0109C85.9076 81.835 78.1353 87.9332 69.0419 91.5343C59.9485 95.1353 49.9423 96.0775 40.2888 94.2417C30.6353 92.4059 21.768 87.8745 14.8082 81.2206C7.84836 74.5667 3.10869 66.0892 1.18849 56.8599C-0.731719 47.6307 0.253806 38.0644 4.02042 29.3707C7.78704 20.6769 14.1656 13.2463 22.3494 8.01834C30.5333 2.79041 40.1549 0 49.9975 0C63.1961 0 75.8541 5.01265 85.1869 13.9353C94.5197 22.8579 99.7628 34.9595 99.7628 47.5779Z" fill="#4C2657"/>
<path d="M46.7832 50.5339C47.5802 50.8982 48.4426 51.1134 49.324 51.168C50.2418 51.1258 51.1395 50.8963 51.9567 50.4949L63.0383 46.0073C63.3947 45.8287 63.7819 45.7131 64.1812 45.6659C64.5037 45.6976 64.8198 45.7732 65.12 45.8903L80.6404 51.129L79.62 48.3974L69.7832 45.1001L71.1506 39.9686C71.2474 39.5317 71.3946 39.1064 71.5894 38.7004C72.1476 37.8782 72.917 37.2064 73.824 36.7493C74.1302 36.5249 74.4873 36.3395 74.7934 36.1151L74.5281 35.403C74.1302 35.6274 73.7424 35.8908 73.3955 36.1151C72.375 36.6705 71.5102 37.4537 70.8751 38.3979C70.6541 38.8537 70.4864 39.3314 70.3751 39.8223L68.9975 44.8757L65.9363 43.8318C65.3827 43.6293 64.8023 43.5013 64.2118 43.4514C63.504 43.4797 62.8096 43.6457 62.171 43.9391L55.7832 46.5634V27.7156L55.0077 28.0571V46.8268L51.12 48.3974C50.5806 48.6581 49.9964 48.8234 49.3955 48.8852C48.8114 48.8293 48.2419 48.6775 47.7118 48.4364L45.671 47.6462C45.8298 45.9411 45.5063 44.2266 44.7344 42.6819C43.9625 41.1373 42.7705 39.8195 41.2833 38.8662C39.7834 37.9995 38.1615 37.3425 36.4669 36.9151C35.6305 36.6914 34.8063 36.4276 33.9975 36.1249C31.9111 35.3363 29.9896 34.1963 28.3241 32.7592L28.2425 32.6812H28.0894C27.6098 32.5739 27.069 32.4958 26.6302 32.3788L26.3547 33.0909C26.8241 33.169 27.3751 33.247 27.8139 33.3543C29.5274 34.8523 31.5169 36.0332 33.6812 36.8371C34.5077 37.1395 35.3751 37.4029 36.2322 37.6663C37.8675 38.0698 39.4367 38.6869 40.8955 39.5003C42.224 40.3524 43.2985 41.5195 44.0139 42.8875C44.7293 44.2554 45.0612 45.7775 44.9771 47.3048L38.2016 44.6415C37.509 44.3288 36.7682 44.1245 36.0077 44.0367C35.1834 44.0118 34.3611 44.1274 33.5792 44.3781L20.8037 47.6755L19.7833 50.2607L34.1608 46.5536C34.6929 46.3793 35.2514 46.2903 35.8139 46.2902C36.333 46.3599 36.8365 46.5116 37.3036 46.739L41.9669 48.573V63.5966L42.7424 64.1624V48.9242L46.8241 50.5339H46.7832Z" fill="#E7E8E9"/>
<path d="M65.3139 52.7777C65.0792 52.7777 64.8853 52.7777 64.6506 52.7777C64.0861 52.7662 63.5232 52.714 62.9669 52.6216C60.3751 52.0655 58.7322 49.4803 57.4057 47.0414L56.0281 47.7536C57.5179 50.4559 59.3955 53.4118 62.6506 54.0849C63.2958 54.2075 63.952 54.2696 64.6098 54.2703C64.8202 54.2512 65.032 54.2512 65.2424 54.2703C68.7475 54.5109 72.028 56.0094 74.4261 58.4652C75.8597 59.9744 76.9076 61.781 77.4873 63.743L79.3649 64.7966C78.8491 62.0498 77.5172 59.5029 75.5281 57.4604C72.8438 54.7197 69.1794 53.0447 65.2628 52.7679L65.3139 52.7777Z" fill="#E7E8E9"/>
<path d="M64.0893 26.6229C64.0893 32.1641 53.5894 43.3245 53.5894 43.3245C53.5894 43.3245 43.0894 32.1641 43.0894 26.6229C43.0894 25.3047 43.361 23.9993 43.8886 22.7814C44.4163 21.5635 45.1897 20.4568 46.1647 19.5247C47.1398 18.5925 48.2973 17.8531 49.5712 17.3486C50.8451 16.8441 52.2105 16.5845 53.5894 16.5845C54.9682 16.5845 56.3336 16.8441 57.6075 17.3486C58.8814 17.8531 60.039 18.5925 61.014 19.5247C61.989 20.4568 62.7624 21.5635 63.2901 22.7814C63.8178 23.9993 64.0893 25.3047 64.0893 26.6229Z" fill="#007D30"/>
<path d="M59.6302 26.7888C59.6282 27.9731 59.259 29.1302 58.5694 30.114C57.8797 31.0978 56.9005 31.864 55.7555 32.3158C54.6104 32.7677 53.351 32.8849 52.1364 32.6527C50.9217 32.4205 49.8063 31.8493 48.9311 31.0112C48.0559 30.1731 47.4602 29.1058 47.2193 27.9441C46.9783 26.7824 47.103 25.5785 47.5775 24.4846C48.052 23.3906 48.8551 22.4557 49.8852 21.798C50.9153 21.1402 52.1262 20.7892 53.3649 20.7892C54.1885 20.7892 55.0041 20.9444 55.7649 21.246C56.5257 21.5477 57.2168 21.9898 57.7987 22.547C58.3807 23.1043 58.8419 23.7657 59.1562 24.4936C59.4705 25.2214 59.6315 26.0014 59.6302 26.7888Z" fill="#EDF0F2"/>
<path d="M50 0C40.111 0 30.444 2.80356 22.2215 8.05615C13.999 13.3087 7.59043 20.7744 3.80605 29.5092C0.0216713 38.2439 -0.968505 47.8554 0.960755 57.1281C2.89002 66.4008 7.65205 74.9184 14.6447 81.6037C21.6373 88.289 30.5464 92.8417 40.2455 94.6862C49.9445 96.5306 59.9979 95.584 69.1342 91.966C78.2705 88.3479 86.0794 82.2209 91.5735 74.3599C97.0675 66.4988 100 57.2567 100 47.8023C100 35.1244 94.7322 22.9657 85.3553 14.001C75.9785 5.03631 63.2608 0 50 0ZM50 89.5562C41.3524 89.5562 32.8991 87.1041 25.7094 82.5101C18.5198 77.9161 12.9168 71.3867 9.6094 63.7477C6.30198 56.1088 5.43866 47.7037 7.1287 39.5956C8.81873 31.4875 12.9862 24.0408 19.1038 18.1975C25.2215 12.3542 33.0144 8.37689 41.4968 6.76871C49.9793 5.16053 58.77 5.99372 66.757 9.16291C74.7441 12.3321 81.5685 17.6949 86.3669 24.5728C91.1654 31.4508 93.7224 39.5348 93.7143 47.8023C93.7143 53.2907 92.5836 58.7252 90.3867 63.7958C88.1899 68.8663 84.9699 73.4735 80.9107 77.3544C76.8514 81.2352 72.0324 84.3137 66.7287 86.414C61.4251 88.5142 55.7407 89.5952 50 89.5952V89.5562Z" fill="#007D34"/>
</svg>
